<svg xmlns="http://www.w3.org/2000/svg"  viewBox="0 0 100 100" width="100px" height="100px"><path fill="#c7ede6" d="M87.215,56.71C88.35,54.555,89,52.105,89,49.5c0-6.621-4.159-12.257-10.001-14.478	C78.999,35.015,79,35.008,79,35c0-11.598-9.402-21-21-21c-9.784,0-17.981,6.701-20.313,15.757C36.211,29.272,34.638,29,33,29	c-7.692,0-14.023,5.793-14.89,13.252C12.906,43.353,9,47.969,9,53.5C9,59.851,14.149,65,20.5,65c0.177,0,0.352-0.012,0.526-0.022	C21.022,65.153,21,65.324,21,65.5C21,76.822,30.178,86,41.5,86c6.437,0,12.175-2.972,15.934-7.614C59.612,80.611,62.64,82,66,82	c4.65,0,8.674-2.65,10.666-6.518C77.718,75.817,78.837,76,80,76c6.075,0,11-4.925,11-11C91,61.689,89.53,58.727,87.215,56.71z"/><path fill="#fdfcef" d="M67.125,32.5c0,0-3.64,0-6.125,0s-4.5-2.015-4.5-4.5c0-2.333,1.782-4.229,4.055-4.455	C60.533,23.364,60.5,23.187,60.5,23c0-2.485,2.015-4.5,4.5-4.5c1.438,0,2.703,0.686,3.527,1.736C68.667,17.6,70.829,15.5,73.5,15.5	c2.761,0,5,2.239,5,5c0,0.446-0.077,0.87-0.187,1.282c0.642-0.777,1.6-1.282,2.687-1.282c1.781,0,3.234,1.335,3.455,3.055	C84.636,23.533,84.813,23.5,85,23.5c2.485,0,4.5,2.015,4.5,4.5s-2.015,4.5-4.5,4.5s-9.5,0-9.5,0h-5.375V33h-3V32.5z"/><path fill="#472b29" d="M73.5,15c3.033,0,5.5,2.467,5.5,5.5c0,0.016,0,0.031,0,0.047C79.602,20.192,80.29,20,81,20	c1.831,0,3.411,1.261,3.858,3.005C84.905,23.002,84.952,23,85,23c2.757,0,5,2.243,5,5s-2.243,5-5,5H70.125	c-0.276,0-0.5-0.224-0.5-0.5s0.224-0.5,0.5-0.5H85c2.206,0,4-1.794,4-4s-1.794-4-4-4c-0.117,0-0.23,0.017-0.343,0.032l-0.141,0.019	c-0.021,0.003-0.041,0.004-0.062,0.004c-0.246,0-0.462-0.185-0.495-0.437C83.768,22.125,82.496,21,81,21	c-0.885,0-1.723,0.401-2.301,1.1c-0.098,0.118-0.241,0.182-0.386,0.182c-0.078,0-0.156-0.018-0.228-0.056	c-0.209-0.107-0.314-0.346-0.254-0.573C77.946,21.218,78,20.852,78,20.5c0-2.481-2.019-4.5-4.5-4.5	c-2.381,0-4.347,1.872-4.474,4.263c-0.011,0.208-0.15,0.387-0.349,0.45c-0.05,0.016-0.101,0.024-0.152,0.024	c-0.15,0-0.296-0.069-0.392-0.192C67.362,19.563,66.221,19,65,19c-2.206,0-4,1.794-4,4c0,0.117,0.017,0.23,0.032,0.343l0.019,0.141	c0.016,0.134-0.022,0.268-0.106,0.373s-0.207,0.172-0.34,0.185C58.549,24.247,57,25.949,57,28c0,2.206,1.794,4,4,4h6.125	c0.276,0,0.5,0.224,0.5,0.5s-0.224,0.5-0.5,0.5H61c-2.757,0-5-2.243-5-5c0-2.397,1.689-4.413,4.003-4.877	C60.001,23.082,60,23.041,60,23c0-2.757,2.243-5,5-5c1.176,0,2.293,0.416,3.183,1.164C68.781,16.76,70.945,15,73.5,15L73.5,15z"/><path fill="#472b29" d="M75,22c1.403,0,2.609,0.999,2.913,2.341C78.28,24.119,78.699,24,79.125,24	c1.202,0,2.198,0.897,2.353,2.068C81.681,26.022,81.874,26,82.063,26c1.529,0,2.811,1.2,2.918,2.732	C84.99,28.87,84.886,28.99,84.749,29c-0.006,0-0.012,0-0.018,0c-0.13,0-0.24-0.101-0.249-0.232	c-0.089-1.271-1.151-2.268-2.419-2.268c-0.229,0-0.47,0.042-0.738,0.127c-0.022,0.007-0.045,0.01-0.067,0.01	c-0.055,0-0.11-0.02-0.156-0.054C81.038,26.537,81,26.455,81,26.375c0-1.034-0.841-1.875-1.875-1.875	c-0.447,0-0.885,0.168-1.231,0.473c-0.047,0.041-0.106,0.063-0.165,0.063c-0.032,0-0.063-0.006-0.093-0.019	c-0.088-0.035-0.148-0.117-0.155-0.212C77.377,23.512,76.288,22.5,75,22.5c-0.208,0-0.425,0.034-0.682,0.107	c-0.023,0.007-0.047,0.01-0.07,0.01c-0.109,0-0.207-0.073-0.239-0.182c-0.038-0.133,0.039-0.271,0.172-0.309	C74.483,22.04,74.744,22,75,22L75,22z"/><path fill="#472b29" d="M61.117,23.5c1.326,0,2.508,0.897,2.874,2.182c0.038,0.133-0.039,0.271-0.172,0.309	C63.795,25.997,63.772,26,63.75,26c-0.109,0-0.209-0.072-0.24-0.182C63.205,24.748,62.221,24,61.117,24	c-0.117,0-0.23,0.014-0.342,0.029c-0.012,0.002-0.023,0.003-0.035,0.003c-0.121,0-0.229-0.092-0.246-0.217	c-0.019-0.137,0.077-0.263,0.214-0.281C60.842,23.516,60.978,23.5,61.117,23.5L61.117,23.5z"/><path fill="#fff" d="M75.5,74h-10c-0.276,0-0.5-0.224-0.5-0.5s0.224-0.5,0.5-0.5h10c0.276,0,0.5,0.224,0.5,0.5	S75.776,74,75.5,74z"/><path fill="#fff" d="M79.5,74h-2c-0.276,0-0.5-0.224-0.5-0.5s0.224-0.5,0.5-0.5h2c0.276,0,0.5,0.224,0.5,0.5	S79.776,74,79.5,74z"/><path fill="#fff" d="M84.5,76h-10c-0.276,0-0.5-0.224-0.5-0.5s0.224-0.5,0.5-0.5h10c0.276,0,0.5,0.224,0.5,0.5	S84.777,76,84.5,76z"/><path fill="#fff" d="M72.5,76h-1c-0.276,0-0.5-0.224-0.5-0.5s0.224-0.5,0.5-0.5h1c0.276,0,0.5,0.224,0.5,0.5	S72.776,76,72.5,76z"/><path fill="#fff" d="M69.47,76H67.5c-0.276,0-0.5-0.224-0.5-0.5s0.224-0.5,0.5-0.5h1.97c0.276,0,0.5,0.224,0.5,0.5	S69.746,76,69.47,76z"/><path fill="#fff" d="M78.5,72h-5c-0.276,0-0.5-0.224-0.5-0.5s0.224-0.5,0.5-0.5h5c0.276,0,0.5,0.224,0.5,0.5	S78.777,72,78.5,72z"/><path fill="#fff" d="M75.5,78h-2c-0.276,0-0.5-0.224-0.5-0.5s0.224-0.5,0.5-0.5h2c0.276,0,0.5,0.224,0.5,0.5	S75.776,78,75.5,78z"/><path fill="#fff" d="M40.5,24h10c0.276,0,0.5-0.224,0.5-0.5S50.776,23,50.5,23h-10c-0.276,0-0.5,0.224-0.5,0.5	S40.224,24,40.5,24z"/><path fill="#fff" d="M36.5,24h2c0.276,0,0.5-0.224,0.5-0.5S38.776,23,38.5,23h-2c-0.276,0-0.5,0.224-0.5,0.5	S36.224,24,36.5,24z"/><path fill="#fff" d="M31.5,26h10c0.276,0,0.5-0.224,0.5-0.5S41.776,25,41.5,25h-10c-0.276,0-0.5,0.224-0.5,0.5	S31.223,26,31.5,26z"/><path fill="#fff" d="M43.5,26h1c0.276,0,0.5-0.224,0.5-0.5S44.776,25,44.5,25h-1c-0.276,0-0.5,0.224-0.5,0.5	S43.224,26,43.5,26z"/><path fill="#fff" d="M46.53,26h1.97c0.276,0,0.5-0.224,0.5-0.5S48.776,25,48.5,25h-1.97c-0.276,0-0.5,0.224-0.5,0.5	S46.254,26,46.53,26z"/><path fill="#fff" d="M37.5,22h5c0.276,0,0.5-0.224,0.5-0.5S42.776,21,42.5,21h-5c-0.276,0-0.5,0.224-0.5,0.5	S37.223,22,37.5,22z"/><path fill="#fff" d="M40.5,28h2c0.276,0,0.5-0.224,0.5-0.5S42.776,27,42.5,27h-2c-0.276,0-0.5,0.224-0.5,0.5	S40.224,28,40.5,28z"/><path fill="#fdfcef" d="M27.477,80.477c0,0-1.567,0-3.5,0s-3.5-1.567-3.5-3.5c0-1.781,1.335-3.234,3.055-3.455 c-0.028-0.179-0.055-0.358-0.055-0.545c0-1.933,1.567-3.5,3.5-3.5c1.032,0,1.95,0.455,2.59,1.165 c0.384-1.808,1.987-3.165,3.91-3.165c2.209,0,4,1.791,4,4c0,0.191-0.03,0.374-0.056,0.558c0.428-0.344,0.965-0.558,1.556-0.558 c1.228,0,2.245,0.887,2.455,2.055c0.179-0.028,0.358-0.055,0.545-0.055c1.933,0,3.5,1.567,3.5,3.5s-1.567,3.5-3.5,3.5s-7.5,0-7.5,0 v0.5h-7V80.477z"/><path fill="#472b29" d="M25.727,75.977c0.138,0,0.25-0.112,0.25-0.25c0-1.223-0.995-2.218-2.218-2.218 c-0.034,0.009-0.737-0.001-1.244,0.136c-0.133,0.036-0.212,0.173-0.176,0.306c0.036,0.134,0.173,0.213,0.306,0.176 c0.444-0.12,1.1-0.12,1.113-0.118c0.948,0,1.719,0.771,1.719,1.718C25.477,75.865,25.588,75.977,25.727,75.977z"/><circle cx="32.477" cy="80.477" r=".5" fill="#472b29"/><path fill="#472b29" d="M23.977,80.977h3.5c0.276,0,0.5-0.224,0.5-0.5s-0.224-0.5-0.5-0.5h-3.5c-1.654,0-3-1.346-3-3 c0-1.496,1.125-2.768,2.618-2.959c0.134-0.018,0.255-0.088,0.336-0.196s0.115-0.244,0.094-0.377 c-0.024-0.153-0.049-0.308-0.049-0.468c0-1.654,1.346-3,3-3c0.85,0,1.638,0.355,2.219,1c0.125,0.139,0.321,0.198,0.5,0.148 c0.182-0.049,0.321-0.195,0.36-0.379c0.341-1.604,1.779-2.769,3.42-2.769c1.93,0,3.5,1.57,3.5,3.5c0,0.143-0.021,0.28-0.041,0.418 c-0.029,0.203,0.063,0.438,0.242,0.54c0.179,0.102,0.396,0.118,0.556-0.01c0.365-0.293,0.794-0.448,1.243-0.448 c0.966,0,1.792,0.691,1.963,1.644c0.048,0.267,0.296,0.446,0.569,0.405c0.153-0.024,0.308-0.049,0.468-0.049c1.654,0,3,1.346,3,3 s-1.346,3-3,3h-7.5c-0.276,0-0.5,0.224-0.5,0.5s0.224,0.5,0.5,0.5h7.5c2.206,0,4-1.794,4-4s-1.794-4-4-4 c-0.059,0-0.116,0.002-0.174,0.006c-0.414-1.186-1.537-2.006-2.826-2.006c-0.349,0-0.689,0.061-1.011,0.18 c-0.165-2.333-2.115-4.18-4.489-4.18c-1.831,0-3.466,1.127-4.153,2.774c-0.68-0.499-1.502-0.774-2.347-0.774c-2.206,0-4,1.794-4,4 c0,0.048,0.001,0.095,0.004,0.142c-1.743,0.448-3.004,2.027-3.004,3.858C19.977,79.182,21.771,80.977,23.977,80.977z"/><path fill="#472b29" d="M29.477,79.977c0.159,0,0.841,0,1,0c0.276,0,0.5,0.224,0.5,0.5c0,0.276-0.224,0.5-0.5,0.5 c-0.159,0-0.841,0-1,0c-0.276,0-0.5-0.224-0.5-0.5C28.977,80.2,29.201,79.977,29.477,79.977z"/><path fill="#848484" d="M51.967,37.279c2.017,0,7.759,1.102,7.759,6.75c0,4.547-2.172,5.897-3.879,6.207 c-1.241,0.233,3.569,0,3.569,5.695c0,8.069-6.983,7.759-6.983,7.759l-11.585-0.621L40.794,37.96L51.967,37.279z M47.311,43.387 v4.32h3.879c0,0,1.552-0.202,1.552-2.269c0-2.067-1.552-2.051-1.552-2.051H47.311z M47.311,53.448v4.453h3.879 c0,0,1.552-0.171,1.552-2.398c0-2.055-1.552-2.055-1.552-2.055H47.311z M20.001,38v25.044h7.293v-9.13h4.655v9.085h7.293V38 h-7.293v9.241h-4.655V38H20.001z"/><path fill="#848484" d="M72.422,64c-7.444,0-13.5-6.056-13.5-13.5S64.978,37,72.422,37s13.5,6.056,13.5,13.5 S79.866,64,72.422,64z M72.422,43.828c-3.679,0-6.672,2.993-6.672,6.672s2.993,6.672,6.672,6.672s6.672-2.993,6.672-6.672 S76.101,43.828,72.422,43.828z"/><path fill="none" stroke="#472b29" stroke-linecap="round" stroke-miterlimit="10" stroke-width=".5" d="M64.14,44.052 c0.522-0.669,1.124-1.274,1.79-1.799 M66.619,59.247c-2.829-1.883-4.697-5.101-4.697-8.747c0-1.593,0.357-3.104,0.994-4.458 M81.476,55.813c-1.44,2.444-3.84,4.257-6.678,4.916C74.034,60.906,73.239,61,72.422,61 M82.922,50.5 c0,0.879-0.109,1.733-0.313,2.549 M67.965,40.994C69.318,40.356,70.829,40,72.422,40c0.885,0,1.744,0.11,2.565,0.317"/><circle cx="72.398" cy="50.5" r="5.431" fill="#848484"/><g><path fill="#472b29" d="M51.966,38.4c0.064,0,6.359,0.063,6.359,5.5c0,2.035-0.474,4.549-2.743,4.97 c-1.125,0.216-1.309,1.003-1.336,1.332c-0.041,0.498,0.129,1.172,1.173,1.557c0.777,0.287,2.596,0.958,2.596,4.308 c0,6.061-4.194,6.533-5.518,6.533c0,0-0.001,0-0.001,0c-0.021-0.001-0.042-0.001-0.064-0.001H42.193V38.4H51.966 M47.31,49.06 h3.879c0.057,0,0.114-0.003,0.171-0.01c0.962-0.118,2.781-1.008,2.781-3.531c0-2.447-1.765-3.335-2.952-3.335H47.31 c-0.773,0-1.4,0.627-1.4,1.4v4.077C45.91,48.433,46.537,49.06,47.31,49.06 M47.31,59.053h3.879c0.048,0,0.095-0.002,0.142-0.007 c0.972-0.099,2.809-0.982,2.809-3.614c0-2.424-1.765-3.304-2.952-3.304H47.31c-0.773,0-1.4,0.627-1.4,1.4v4.124 C45.91,58.426,46.537,59.053,47.31,59.053 M37.841,38.4v24.198h-4.493v-8.594c0-0.773-0.627-1.4-1.4-1.4h-4.655 c-0.773,0-1.4,0.627-1.4,1.4v8.594H21.4V38.4h4.493v8.784c0,0.773,0.627,1.4,1.4,1.4h4.655c0.773,0,1.4-0.627,1.4-1.4V38.4 H37.841 M51.966,37H41.793c-0.552,0-1,0.448-1,1v24.998c0,0.552,0.448,1,1,1h10.638c0,0,0.036,0.002,0.102,0.002 c0.861,0,6.881-0.274,6.881-7.933c0-5.822-4.81-5.584-3.569-5.822c1.707-0.317,3.879-1.697,3.879-6.345 C59.724,38.126,53.983,37,51.966,37L51.966,37z M47.31,47.66v-4.077h3.879c0,0,0,0,0.001,0c0.048,0,1.55,0.015,1.55,1.935 c0,1.951-1.552,2.141-1.552,2.141H47.31L47.31,47.66z M47.31,57.653v-4.124h3.879c0,0,1.552,0,1.552,1.904 c0,2.062-1.552,2.221-1.552,2.221H47.31L47.31,57.653z M38.241,37h-5.293c-0.552,0-1,0.448-1,1v9.184h-4.655V38 c0-0.552-0.448-1-1-1H21c-0.552,0-1,0.448-1,1v24.998c0,0.552,0.448,1,1,1h5.293c0.552,0,1-0.448,1-1v-8.994h4.655v8.994 c0,0.552,0.448,1,1,1h5.293c0.552,0,1-0.448,1-1V38C39.241,37.448,38.794,37,38.241,37L38.241,37z"/><path fill="#472b29" d="M72.414,38.4c6.672,0,12.1,5.428,12.1,12.1s-5.428,12.1-12.1,12.1s-12.1-5.428-12.1-12.1 S65.742,38.4,72.414,38.4 M72.414,58.572c4.451,0,8.073-3.621,8.073-8.072s-3.621-8.072-8.073-8.072 c-4.451,0-8.072,3.621-8.072,8.072S67.963,58.572,72.414,58.572 M72.414,37c-7.444,0-13.5,6.056-13.5,13.5S64.97,64,72.414,64 c7.444,0,13.5-6.056,13.5-13.5S79.858,37,72.414,37L72.414,37z M72.414,57.172c-3.679,0-6.672-2.993-6.672-6.672 s2.993-6.672,6.672-6.672c3.679,0,6.672,2.993,6.672,6.672S76.093,57.172,72.414,57.172L72.414,57.172z"/><path fill="#472b29" d="M72.414,46.469c2.223,0,4.031,1.808,4.031,4.031s-1.808,4.031-4.031,4.031 s-4.031-1.808-4.031-4.031S70.191,46.469,72.414,46.469 M72.414,45.069c-2.999,0-5.431,2.432-5.431,5.431 s2.432,5.431,5.431,5.431c3,0,5.431-2.432,5.431-5.431S75.413,45.069,72.414,45.069L72.414,45.069z"/></g><line x1="23" x2="23" y1="49.066" y2="60.505" fill="none" stroke="#472b29" stroke-linecap="round" stroke-miterlimit="10" stroke-width=".5"/><line x1="23" x2="23" y1="45.011" y2="47.055" fill="none" stroke="#472b29" stroke-linecap="round" stroke-miterlimit="10" stroke-width=".5"/><line x1="23" x2="23" y1="40.527" y2="43.066" fill="none" stroke="#472b29" stroke-linecap="round" stroke-miterlimit="10" stroke-width=".5"/><line x1="43.992" x2="43.992" y1="58" y2="60.505" fill="none" stroke="#472b29" stroke-linecap="round" stroke-miterlimit="10" stroke-width=".5"/><line x1="43.992" x2="43.992" y1="54.011" y2="55.989" fill="none" stroke="#472b29" stroke-linecap="round" stroke-miterlimit="10" stroke-width=".5"/><line x1="43.992" x2="43.992" y1="40.527" y2="52.066" fill="none" stroke="#472b29" stroke-linecap="round" stroke-miterlimit="10" stroke-width=".5"/></svg>